<mxfile host="app.diagrams.net" agent="Mozilla/5.0 (Windows NT 10.0; Win64; x64) AppleWebKit/537.36 (KHTML, like Gecko) Chrome/131.0.0.0 Safari/537.36" version="24.9.1">
  <diagram name="Page-1" id="LCgPQnHAyw77JMyma-C3">
    <mxGraphModel dx="926" dy="448" grid="1" gridSize="10" guides="1" tooltips="1" connect="1" arrows="1" fold="1" page="1" pageScale="1" pageWidth="850" pageHeight="1100" math="0" shadow="0">
      <root>
        <mxCell id="0" />
        <mxCell id="1" parent="0" />
        <mxCell id="MyNX13WtFqXK99jWimWp-2" value="" style="ellipse;html=1;shape=startState;fillColor=#000000;strokeColor=#000000;" vertex="1" parent="1">
          <mxGeometry x="410" y="110" width="30" height="30" as="geometry" />
        </mxCell>
        <mxCell id="MyNX13WtFqXK99jWimWp-3" value="" style="edgeStyle=orthogonalEdgeStyle;html=1;verticalAlign=bottom;endArrow=open;endSize=8;strokeColor=#000000;rounded=0;entryX=0.5;entryY=0;entryDx=0;entryDy=0;" edge="1" source="MyNX13WtFqXK99jWimWp-2" parent="1" target="MyNX13WtFqXK99jWimWp-4">
          <mxGeometry relative="1" as="geometry">
            <mxPoint x="425" y="240" as="targetPoint" />
            <Array as="points">
              <mxPoint x="425" y="200" />
              <mxPoint x="425" y="200" />
            </Array>
          </mxGeometry>
        </mxCell>
        <mxCell id="MyNX13WtFqXK99jWimWp-4" value="Navigate to home page" style="rounded=1;whiteSpace=wrap;html=1;" vertex="1" parent="1">
          <mxGeometry x="365" y="230" width="120" height="60" as="geometry" />
        </mxCell>
        <mxCell id="MyNX13WtFqXK99jWimWp-6" value="" style="endArrow=none;html=1;rounded=0;strokeWidth=7;" edge="1" parent="1">
          <mxGeometry width="50" height="50" relative="1" as="geometry">
            <mxPoint x="365" y="380" as="sourcePoint" />
            <mxPoint x="485" y="380" as="targetPoint" />
          </mxGeometry>
        </mxCell>
        <mxCell id="MyNX13WtFqXK99jWimWp-8" value="" style="edgeStyle=orthogonalEdgeStyle;html=1;verticalAlign=bottom;endArrow=open;endSize=8;strokeColor=#000000;rounded=0;entryX=0.5;entryY=0;entryDx=0;entryDy=0;" edge="1" parent="1">
          <mxGeometry relative="1" as="geometry">
            <mxPoint x="424.47" y="380" as="targetPoint" />
            <mxPoint x="424.47" y="290" as="sourcePoint" />
            <Array as="points">
              <mxPoint x="424.47" y="350" />
              <mxPoint x="424.47" y="350" />
            </Array>
          </mxGeometry>
        </mxCell>
        <mxCell id="MyNX13WtFqXK99jWimWp-9" value="" style="edgeStyle=orthogonalEdgeStyle;html=1;verticalAlign=bottom;endArrow=open;endSize=8;strokeColor=#000000;rounded=0;" edge="1" parent="1" target="MyNX13WtFqXK99jWimWp-11">
          <mxGeometry relative="1" as="geometry">
            <mxPoint x="310" y="520" as="targetPoint" />
            <mxPoint x="365" y="380" as="sourcePoint" />
            <Array as="points">
              <mxPoint x="370" y="380" />
              <mxPoint x="370" y="420" />
              <mxPoint x="210" y="420" />
            </Array>
          </mxGeometry>
        </mxCell>
        <mxCell id="MyNX13WtFqXK99jWimWp-13" value="Select Movies" style="edgeLabel;html=1;align=center;verticalAlign=middle;resizable=0;points=[];" vertex="1" connectable="0" parent="MyNX13WtFqXK99jWimWp-9">
          <mxGeometry x="0.5629" relative="1" as="geometry">
            <mxPoint y="21" as="offset" />
          </mxGeometry>
        </mxCell>
        <mxCell id="MyNX13WtFqXK99jWimWp-10" value="" style="edgeStyle=orthogonalEdgeStyle;html=1;verticalAlign=bottom;endArrow=open;endSize=8;strokeColor=#000000;rounded=0;" edge="1" parent="1" target="MyNX13WtFqXK99jWimWp-14">
          <mxGeometry relative="1" as="geometry">
            <mxPoint x="485" y="470" as="targetPoint" />
            <mxPoint x="485" y="380" as="sourcePoint" />
            <Array as="points">
              <mxPoint x="480" y="380" />
              <mxPoint x="480" y="420" />
              <mxPoint x="660" y="420" />
            </Array>
          </mxGeometry>
        </mxCell>
        <mxCell id="MyNX13WtFqXK99jWimWp-15" value="Select Theaters" style="edgeLabel;html=1;align=center;verticalAlign=middle;resizable=0;points=[];" vertex="1" connectable="0" parent="MyNX13WtFqXK99jWimWp-10">
          <mxGeometry x="0.6853" relative="1" as="geometry">
            <mxPoint y="7" as="offset" />
          </mxGeometry>
        </mxCell>
        <mxCell id="MyNX13WtFqXK99jWimWp-11" value="View Movie List" style="rounded=1;whiteSpace=wrap;html=1;" vertex="1" parent="1">
          <mxGeometry x="150" y="490" width="120" height="60" as="geometry" />
        </mxCell>
        <mxCell id="MyNX13WtFqXK99jWimWp-14" value="View Theater List" style="rounded=1;whiteSpace=wrap;html=1;" vertex="1" parent="1">
          <mxGeometry x="600" y="490" width="120" height="60" as="geometry" />
        </mxCell>
        <mxCell id="MyNX13WtFqXK99jWimWp-17" value="" style="edgeStyle=orthogonalEdgeStyle;html=1;verticalAlign=bottom;endArrow=open;endSize=8;strokeColor=#000000;rounded=0;" edge="1" parent="1">
          <mxGeometry relative="1" as="geometry">
            <mxPoint x="360" y="640" as="targetPoint" />
            <mxPoint x="209.47000000000003" y="550" as="sourcePoint" />
            <Array as="points">
              <mxPoint x="209.47000000000003" y="610" />
              <mxPoint x="209.47000000000003" y="610" />
            </Array>
          </mxGeometry>
        </mxCell>
        <mxCell id="MyNX13WtFqXK99jWimWp-20" value="Select Movie" style="edgeLabel;html=1;align=center;verticalAlign=middle;resizable=0;points=[];" vertex="1" connectable="0" parent="MyNX13WtFqXK99jWimWp-17">
          <mxGeometry x="-0.7077" relative="1" as="geometry">
            <mxPoint x="1" y="-5" as="offset" />
          </mxGeometry>
        </mxCell>
        <mxCell id="MyNX13WtFqXK99jWimWp-18" value="" style="edgeStyle=orthogonalEdgeStyle;html=1;verticalAlign=bottom;endArrow=open;endSize=8;strokeColor=#000000;rounded=0;entryX=1;entryY=0.5;entryDx=0;entryDy=0;" edge="1" parent="1" target="MyNX13WtFqXK99jWimWp-19">
          <mxGeometry relative="1" as="geometry">
            <mxPoint x="660" y="640" as="targetPoint" />
            <mxPoint x="660" y="550" as="sourcePoint" />
            <Array as="points">
              <mxPoint x="660" y="640" />
            </Array>
          </mxGeometry>
        </mxCell>
        <mxCell id="MyNX13WtFqXK99jWimWp-19" value="View Movie" style="rounded=1;whiteSpace=wrap;html=1;" vertex="1" parent="1">
          <mxGeometry x="360" y="610" width="120" height="60" as="geometry" />
        </mxCell>
        <mxCell id="MyNX13WtFqXK99jWimWp-21" value="Select Movie" style="edgeLabel;html=1;align=center;verticalAlign=middle;resizable=0;points=[];" vertex="1" connectable="0" parent="1">
          <mxGeometry x="660.0021329639851" y="579.9968420397773" as="geometry" />
        </mxCell>
        <mxCell id="MyNX13WtFqXK99jWimWp-22" value="&lt;font style=&quot;font-size: 20px;&quot;&gt;System Activity Diagram:&lt;/font&gt;&lt;div&gt;&lt;font style=&quot;font-size: 20px;&quot;&gt;Browse &amp;amp; Select Movie&lt;/font&gt;&lt;/div&gt;" style="text;html=1;align=center;verticalAlign=middle;resizable=0;points=[];autosize=1;strokeColor=none;fillColor=none;" vertex="1" parent="1">
          <mxGeometry x="305" y="10" width="240" height="60" as="geometry" />
        </mxCell>
      </root>
    </mxGraphModel>
  </diagram>
</mxfile>
